<mxfile host="app.diagrams.net" modified="2023-10-22T12:16:23.253Z" agent="Mozilla/5.0 (Windows NT 10.0; Win64; x64) AppleWebKit/537.36 (KHTML, like Gecko) Chrome/118.0.0.0 Safari/537.36" etag="IhQwlVu19vBzfzuTFVwz" version="22.0.6" type="github">
  <diagram name="Strona-1" id="7Bol3v8hB-BvymdotYsc">
    <mxGraphModel dx="3838" dy="1816" grid="1" gridSize="10" guides="1" tooltips="1" connect="1" arrows="1" fold="1" page="1" pageScale="1" pageWidth="827" pageHeight="1169" math="0" shadow="0">
      <root>
        <mxCell id="0" />
        <mxCell id="1" parent="0" />
        <mxCell id="Qzy2jJmeIsJSBQBwepts-1" value="" style="shape=cube;whiteSpace=wrap;html=1;boundedLbl=1;backgroundOutline=1;darkOpacity=0.05;darkOpacity2=0.1;direction=east;flipH=1;size=220;labelBackgroundColor=none;fillColor=#1ba1e2;strokeColor=#006EAF;fontColor=#ffffff;" vertex="1" parent="1">
          <mxGeometry x="-360" y="240" width="240" height="610" as="geometry" />
        </mxCell>
        <mxCell id="Qzy2jJmeIsJSBQBwepts-3" value="" style="shape=cube;whiteSpace=wrap;html=1;boundedLbl=1;backgroundOutline=1;darkOpacity=0.05;darkOpacity2=0.1;direction=east;flipH=1;size=220;labelBackgroundColor=none;fillColor=#60a917;strokeColor=#2D7600;fontColor=#ffffff;" vertex="1" parent="1">
          <mxGeometry x="-310" y="240" width="240" height="610" as="geometry" />
        </mxCell>
        <mxCell id="Qzy2jJmeIsJSBQBwepts-9" value="" style="shape=cube;whiteSpace=wrap;html=1;boundedLbl=1;backgroundOutline=1;darkOpacity=0.05;darkOpacity2=0.1;direction=east;flipH=1;size=130;labelBackgroundColor=none;fillColor=#1ba1e2;strokeColor=#006EAF;fontColor=#ffffff;" vertex="1" parent="1">
          <mxGeometry x="-220" y="360" width="190" height="450" as="geometry" />
        </mxCell>
        <mxCell id="Qzy2jJmeIsJSBQBwepts-11" value="" style="shape=cube;whiteSpace=wrap;html=1;boundedLbl=1;backgroundOutline=1;darkOpacity=0.05;darkOpacity2=0.1;direction=east;flipH=1;size=130;labelBackgroundColor=none;fillColor=#60a917;strokeColor=#2D7600;fontColor=#ffffff;" vertex="1" parent="1">
          <mxGeometry x="-130" y="360" width="190" height="450" as="geometry" />
        </mxCell>
        <mxCell id="Qzy2jJmeIsJSBQBwepts-12" value="" style="shape=cube;whiteSpace=wrap;html=1;boundedLbl=1;backgroundOutline=1;darkOpacity=0.05;darkOpacity2=0.1;direction=east;flipH=1;size=80;labelBackgroundColor=none;fillColor=#1ba1e2;strokeColor=#006EAF;fontColor=#ffffff;" vertex="1" parent="1">
          <mxGeometry x="-10" y="460" width="190" height="250" as="geometry" />
        </mxCell>
        <mxCell id="Qzy2jJmeIsJSBQBwepts-19" value="" style="shape=cube;whiteSpace=wrap;html=1;boundedLbl=1;backgroundOutline=1;darkOpacity=0.05;darkOpacity2=0.1;direction=east;flipH=1;size=80;labelBackgroundColor=none;fillColor=#60a917;strokeColor=#2D7600;fontColor=#ffffff;" vertex="1" parent="1">
          <mxGeometry x="130" y="460" width="190" height="250" as="geometry" />
        </mxCell>
        <mxCell id="Qzy2jJmeIsJSBQBwepts-6" value="" style="shape=cube;whiteSpace=wrap;html=1;boundedLbl=1;backgroundOutline=1;darkOpacity=0.05;darkOpacity2=0.1;direction=east;flipH=1;size=30;labelBackgroundColor=none;fillColor=#647687;strokeColor=#314354;fontColor=#ffffff;" vertex="1" parent="1">
          <mxGeometry x="290" y="540" width="180" height="105" as="geometry" />
        </mxCell>
        <mxCell id="Qzy2jJmeIsJSBQBwepts-20" value="" style="shape=cube;whiteSpace=wrap;html=1;boundedLbl=1;backgroundOutline=1;darkOpacity=0.05;darkOpacity2=0.1;direction=east;flipH=1;size=30;labelBackgroundColor=none;fillColor=#647687;strokeColor=#314354;fontColor=#ffffff;" vertex="1" parent="1">
          <mxGeometry x="510" y="540" width="180" height="105" as="geometry" />
        </mxCell>
        <mxCell id="Qzy2jJmeIsJSBQBwepts-21" value="" style="shape=cube;whiteSpace=wrap;html=1;boundedLbl=1;backgroundOutline=1;darkOpacity=0.05;darkOpacity2=0.1;direction=east;flipH=1;size=80;labelBackgroundColor=none;fillColor=#f0a30a;strokeColor=#BD7000;fontColor=#000000;" vertex="1" parent="1">
          <mxGeometry x="650" y="460" width="190" height="250" as="geometry" />
        </mxCell>
        <mxCell id="Qzy2jJmeIsJSBQBwepts-22" value="" style="shape=cube;whiteSpace=wrap;html=1;boundedLbl=1;backgroundOutline=1;darkOpacity=0.05;darkOpacity2=0.1;direction=east;flipH=1;size=80;labelBackgroundColor=none;fillColor=#1ba1e2;strokeColor=#006EAF;fontColor=#ffffff;" vertex="1" parent="1">
          <mxGeometry x="790" y="460" width="190" height="250" as="geometry" />
        </mxCell>
        <mxCell id="Qzy2jJmeIsJSBQBwepts-23" value="" style="shape=cube;whiteSpace=wrap;html=1;boundedLbl=1;backgroundOutline=1;darkOpacity=0.05;darkOpacity2=0.1;direction=east;flipH=1;size=130;labelBackgroundColor=none;fillColor=#f0a30a;strokeColor=#BD7000;fontColor=#000000;" vertex="1" parent="1">
          <mxGeometry x="900" y="360" width="190" height="450" as="geometry" />
        </mxCell>
        <mxCell id="Qzy2jJmeIsJSBQBwepts-24" value="" style="shape=cube;whiteSpace=wrap;html=1;boundedLbl=1;backgroundOutline=1;darkOpacity=0.05;darkOpacity2=0.1;direction=east;flipH=1;size=130;labelBackgroundColor=none;fillColor=#1ba1e2;strokeColor=#006EAF;fontColor=#ffffff;" vertex="1" parent="1">
          <mxGeometry x="990" y="360" width="190" height="450" as="geometry" />
        </mxCell>
        <mxCell id="Qzy2jJmeIsJSBQBwepts-25" value="" style="shape=cube;whiteSpace=wrap;html=1;boundedLbl=1;backgroundOutline=1;darkOpacity=0.05;darkOpacity2=0.1;direction=east;flipH=1;size=220;labelBackgroundColor=none;fillColor=#f0a30a;strokeColor=#BD7000;fontColor=#000000;" vertex="1" parent="1">
          <mxGeometry x="1060" y="240" width="240" height="610" as="geometry" />
        </mxCell>
        <mxCell id="Qzy2jJmeIsJSBQBwepts-26" value="" style="shape=cube;whiteSpace=wrap;html=1;boundedLbl=1;backgroundOutline=1;darkOpacity=0.05;darkOpacity2=0.1;direction=east;flipH=1;size=220;labelBackgroundColor=none;fillColor=#1ba1e2;strokeColor=#006EAF;fontColor=#ffffff;" vertex="1" parent="1">
          <mxGeometry x="1111" y="240" width="240" height="610" as="geometry" />
        </mxCell>
        <mxCell id="Qzy2jJmeIsJSBQBwepts-52" value="Text" style="text;html=1;strokeColor=none;fillColor=none;align=center;verticalAlign=middle;whiteSpace=wrap;rounded=0;fontColor=#FFFFFF;" vertex="1" parent="1">
          <mxGeometry x="-150" y="180" width="60" height="30" as="geometry" />
        </mxCell>
        <mxCell id="Qzy2jJmeIsJSBQBwepts-59" value="" style="rounded=0;whiteSpace=wrap;html=1;strokeColor=#000000;fontColor=#FFFFFF;fillColor=none;strokeWidth=2;dashed=1;dashPattern=1 2;" vertex="1" parent="1">
          <mxGeometry x="500" y="230" width="860" height="630" as="geometry" />
        </mxCell>
        <mxCell id="Qzy2jJmeIsJSBQBwepts-60" value="" style="rounded=0;whiteSpace=wrap;html=1;strokeColor=#000000;fontColor=#FFFFFF;fillColor=none;strokeWidth=2;dashed=1;dashPattern=1 2;" vertex="1" parent="1">
          <mxGeometry x="-370" y="230" width="850" height="630" as="geometry" />
        </mxCell>
        <mxCell id="Qzy2jJmeIsJSBQBwepts-61" value="Text" style="text;html=1;strokeColor=none;fillColor=none;align=center;verticalAlign=middle;whiteSpace=wrap;rounded=0;fontColor=#FFFFFF;" vertex="1" parent="1">
          <mxGeometry x="480" y="530" width="60" height="30" as="geometry" />
        </mxCell>
        <mxCell id="Qzy2jJmeIsJSBQBwepts-62" value="&lt;font style=&quot;font-size: 27px;&quot; color=&quot;#000000&quot;&gt;Enkoder&lt;/font&gt;" style="text;html=1;strokeColor=none;fillColor=none;align=center;verticalAlign=middle;whiteSpace=wrap;rounded=0;fontColor=#FFFFFF;" vertex="1" parent="1">
          <mxGeometry x="-30" y="170" width="130" height="30" as="geometry" />
        </mxCell>
        <mxCell id="Qzy2jJmeIsJSBQBwepts-63" value="&lt;font style=&quot;font-size: 27px;&quot; color=&quot;#000000&quot;&gt;Dekoder&lt;/font&gt;" style="text;html=1;strokeColor=none;fillColor=none;align=center;verticalAlign=middle;whiteSpace=wrap;rounded=0;fontColor=#FFFFFF;" vertex="1" parent="1">
          <mxGeometry x="865" y="170" width="130" height="30" as="geometry" />
        </mxCell>
        <mxCell id="Qzy2jJmeIsJSBQBwepts-64" value="&lt;font style=&quot;font-size: 27px;&quot; color=&quot;#000000&quot;&gt;Obraz wejściowy&lt;/font&gt;" style="text;html=1;strokeColor=none;fillColor=none;align=center;verticalAlign=middle;whiteSpace=wrap;rounded=0;fontColor=#FFFFFF;" vertex="1" parent="1">
          <mxGeometry x="-620" y="555" width="130" height="30" as="geometry" />
        </mxCell>
        <mxCell id="Qzy2jJmeIsJSBQBwepts-65" value="&lt;font style=&quot;font-size: 27px;&quot; color=&quot;#000000&quot;&gt;Obraz wyjściowy&lt;/font&gt;" style="text;html=1;strokeColor=none;fillColor=none;align=center;verticalAlign=middle;whiteSpace=wrap;rounded=0;fontColor=#FFFFFF;" vertex="1" parent="1">
          <mxGeometry x="1490" y="540" width="130" height="30" as="geometry" />
        </mxCell>
        <mxCell id="Qzy2jJmeIsJSBQBwepts-69" value="" style="endArrow=classic;html=1;rounded=0;strokeColor=#23445D;strokeWidth=8;" edge="1" parent="1">
          <mxGeometry width="50" height="50" relative="1" as="geometry">
            <mxPoint x="-480" y="569.29" as="sourcePoint" />
            <mxPoint x="-380" y="569.29" as="targetPoint" />
          </mxGeometry>
        </mxCell>
        <mxCell id="Qzy2jJmeIsJSBQBwepts-71" style="edgeStyle=orthogonalEdgeStyle;rounded=0;orthogonalLoop=1;jettySize=auto;html=1;exitX=0.5;exitY=1;exitDx=0;exitDy=0;strokeColor=#23445D;" edge="1" parent="1" source="Qzy2jJmeIsJSBQBwepts-64" target="Qzy2jJmeIsJSBQBwepts-64">
          <mxGeometry relative="1" as="geometry" />
        </mxCell>
        <mxCell id="Qzy2jJmeIsJSBQBwepts-72" value="" style="endArrow=classic;html=1;rounded=0;strokeColor=#23445D;strokeWidth=8;" edge="1" parent="1">
          <mxGeometry width="50" height="50" relative="1" as="geometry">
            <mxPoint x="1380" y="555" as="sourcePoint" />
            <mxPoint x="1480" y="555" as="targetPoint" />
          </mxGeometry>
        </mxCell>
        <mxCell id="Qzy2jJmeIsJSBQBwepts-73" value="" style="rounded=0;whiteSpace=wrap;html=1;strokeColor=#006EAF;fontColor=#ffffff;fillColor=#1ba1e2;" vertex="1" parent="1">
          <mxGeometry x="1380" y="230" width="80" height="30" as="geometry" />
        </mxCell>
        <mxCell id="Qzy2jJmeIsJSBQBwepts-74" value="&lt;font style=&quot;font-size: 27px;&quot; color=&quot;#000000&quot;&gt;CNN&lt;/font&gt;" style="text;html=1;strokeColor=none;fillColor=none;align=center;verticalAlign=middle;whiteSpace=wrap;rounded=0;fontColor=#FFFFFF;" vertex="1" parent="1">
          <mxGeometry x="1460" y="230" width="80" height="30" as="geometry" />
        </mxCell>
        <mxCell id="Qzy2jJmeIsJSBQBwepts-75" value="" style="rounded=0;whiteSpace=wrap;html=1;strokeColor=#2D7600;fontColor=#ffffff;fillColor=#60a917;" vertex="1" parent="1">
          <mxGeometry x="1380" y="280" width="80" height="30" as="geometry" />
        </mxCell>
        <mxCell id="Qzy2jJmeIsJSBQBwepts-76" value="&lt;font style=&quot;font-size: 27px;&quot; color=&quot;#000000&quot;&gt;MaxPool&lt;/font&gt;" style="text;html=1;strokeColor=none;fillColor=none;align=center;verticalAlign=middle;whiteSpace=wrap;rounded=0;fontColor=#FFFFFF;" vertex="1" parent="1">
          <mxGeometry x="1460" y="280" width="130" height="30" as="geometry" />
        </mxCell>
        <mxCell id="Qzy2jJmeIsJSBQBwepts-77" value="" style="rounded=0;whiteSpace=wrap;html=1;strokeColor=#314354;fontColor=#ffffff;fillColor=#647687;" vertex="1" parent="1">
          <mxGeometry x="1380" y="330" width="80" height="30" as="geometry" />
        </mxCell>
        <mxCell id="Qzy2jJmeIsJSBQBwepts-78" value="&lt;font style=&quot;font-size: 27px;&quot; color=&quot;#000000&quot;&gt;Macierz ukryta&lt;/font&gt;" style="text;html=1;strokeColor=none;fillColor=none;align=center;verticalAlign=middle;whiteSpace=wrap;rounded=0;fontColor=#FFFFFF;" vertex="1" parent="1">
          <mxGeometry x="1460" y="330" width="200" height="30" as="geometry" />
        </mxCell>
        <mxCell id="Qzy2jJmeIsJSBQBwepts-79" value="" style="rounded=0;whiteSpace=wrap;html=1;strokeColor=#C73500;fontColor=#000000;fillColor=#fa6800;" vertex="1" parent="1">
          <mxGeometry x="1380" y="380" width="80" height="30" as="geometry" />
        </mxCell>
        <mxCell id="Qzy2jJmeIsJSBQBwepts-80" value="&lt;font style=&quot;font-size: 27px;&quot; color=&quot;#000000&quot;&gt;Upsampling&lt;/font&gt;" style="text;html=1;strokeColor=none;fillColor=none;align=center;verticalAlign=middle;whiteSpace=wrap;rounded=0;fontColor=#FFFFFF;" vertex="1" parent="1">
          <mxGeometry x="1460" y="380" width="170" height="30" as="geometry" />
        </mxCell>
      </root>
    </mxGraphModel>
  </diagram>
</mxfile>
